<svg width="24" height="24" viewBox="0 0 24 24" fill="none" xmlns="http://www.w3.org/2000/svg">
<path d="M21.4499 13.87C20.4782 12.4145 19.8805 10.7417 19.7099 9L19.5899 7.86C19.3967 5.98138 18.5138 4.24114 17.1118 2.97588C15.7098 1.71062 13.8884 1.01025 11.9999 1.01025C10.1113 1.01025 8.28993 1.71062 6.88793 2.97588C5.48593 4.24114 4.60298 5.98138 4.40985 7.86L4.28985 9C4.11758 10.7383 3.52 12.4074 2.54985 13.86C2.21577 14.3574 2.0234 14.9363 1.9934 15.5348C1.96339 16.1332 2.09688 16.7285 2.37953 17.2568C2.66219 17.7851 3.08335 18.2265 3.59783 18.5336C4.1123 18.8407 4.70069 19.0019 5.29985 19H7.99985C7.99985 20.0609 8.42128 21.0783 9.17143 21.8284C9.92157 22.5786 10.939 23 11.9999 23C13.0607 23 14.0781 22.5786 14.8283 21.8284C15.5784 21.0783 15.9999 20.0609 15.9999 19H18.6999C19.2974 19.0007 19.884 18.8391 20.3969 18.5325C20.9098 18.2259 21.3299 17.7858 21.6122 17.2591C21.8945 16.7324 22.0286 16.139 22 15.5421C21.9714 14.9452 21.7812 14.3673 21.4499 13.87ZM11.9999 21C11.4694 21 10.9607 20.7893 10.5856 20.4142C10.2106 20.0391 9.99985 19.5304 9.99985 19H13.9999C13.9999 19.5304 13.7891 20.0391 13.4141 20.4142C13.039 20.7893 12.5303 21 11.9999 21ZM18.6999 17H5.29985C5.12914 17 4.96009 16.9664 4.80237 16.901C4.64464 16.8357 4.50133 16.74 4.38062 16.6192C4.2599 16.4985 4.16414 16.3552 4.09881 16.1975C4.03348 16.0398 3.99985 15.8707 3.99985 15.7C4.00767 15.4509 4.08377 15.2088 4.21985 15C5.37128 13.2683 6.07876 11.2798 6.27985 9.21L6.39985 8.07C6.54343 6.68474 7.19535 5.40186 8.22964 4.46924C9.26393 3.53661 10.6072 3.02043 11.9999 3.02043C13.3925 3.02043 14.7358 3.53661 15.7701 4.46924C16.8044 5.40186 17.4563 6.68474 17.5999 8.07L17.7199 9.21C17.921 11.2798 18.6284 13.2683 19.7799 15C19.9213 15.2174 19.9976 15.4707 19.9999 15.73C19.992 16.0696 19.8516 16.3926 19.6086 16.6299C19.3657 16.8673 19.0395 17.0001 18.6999 17Z" fill="url(#paint0_linear_2553_4410)"/>
<defs>
<linearGradient id="paint0_linear_2553_4410" x1="11.9965" y1="1.01025" x2="11.9965" y2="23" gradientUnits="userSpaceOnUse">
<stop stop-color="#FF658E"/>
<stop offset="1" stop-color="#D22C57"/>
</linearGradient>
</defs>
</svg>
