<svg width="24" height="24" viewBox="0 0 24 24" fill="none" xmlns="http://www.w3.org/2000/svg">
<path d="M12 22.607C11.7025 22.6069 11.4099 22.5308 11.15 22.386L7.78 20.513C6.10447 19.5815 4.70832 18.2193 3.73605 16.5671C2.76378 14.9149 2.25073 13.033 2.25 11.116V5.91995C2.24995 5.48758 2.41024 5.07054 2.69988 4.74951C2.98951 4.42848 3.3879 4.22625 3.818 4.18195C5.1588 4.03969 6.47841 3.74133 7.75 3.29295C8.91558 2.88101 10.0336 2.34528 11.085 1.69495H11.086C11.3613 1.5269 11.6775 1.43799 12 1.43799C12.3225 1.43799 12.6387 1.5269 12.914 1.69495C13.9657 2.34522 15.0841 2.88095 16.25 3.29295C17.5216 3.74133 18.8412 4.03969 20.182 4.18195C20.6121 4.22625 21.0105 4.42848 21.3001 4.74951C21.5898 5.07054 21.75 5.48758 21.75 5.91995V11.116C21.7493 13.033 21.2362 14.9149 20.264 16.5671C19.2917 18.2193 17.8955 19.5815 16.22 20.513L12.85 22.386C12.5901 22.5308 12.2975 22.6069 12 22.607ZM11.875 2.97195C10.732 3.67788 9.51674 4.25952 8.25 4.70695C6.86829 5.19474 5.43417 5.51895 3.977 5.67295C3.9151 5.67821 3.85743 5.70651 3.8154 5.75225C3.77337 5.79799 3.75003 5.85783 3.75 5.91995V11.116C3.75054 12.7655 4.19192 14.3849 5.02846 15.8065C5.865 17.2282 7.06629 18.4005 8.508 19.202L11.878 21.074C11.9151 21.0953 11.9572 21.1065 12 21.1065C12.0428 21.1065 12.0849 21.0953 12.122 21.074L15.492 19.202C16.9337 18.4005 18.135 17.2282 18.9715 15.8065C19.8081 14.3849 20.2495 12.7655 20.25 11.116V5.91995C20.25 5.85783 20.2266 5.79799 20.1846 5.75225C20.1426 5.70651 20.0849 5.67821 20.023 5.67295C18.5658 5.51895 17.1317 5.19474 15.75 4.70695C14.4833 4.25952 13.268 3.67788 12.125 2.97195C12.0873 2.9492 12.0441 2.93717 12 2.93717C11.9559 2.93717 11.9127 2.9492 11.875 2.97195Z" fill="url(#paint0_linear_2794_2034)"/>
<path d="M14.5 17.25H9.5C8.90343 17.2495 8.33144 17.0122 7.90959 16.5904C7.48775 16.1686 7.25053 15.5966 7.25 15V12C7.25053 11.4034 7.48775 10.8314 7.90959 10.4096C8.33144 9.98775 8.90343 9.75053 9.5 9.75H14.5C15.0966 9.75053 15.6686 9.98775 16.0904 10.4096C16.5122 10.8314 16.7495 11.4034 16.75 12V15C16.7495 15.5966 16.5122 16.1686 16.0904 16.5904C15.6686 17.0122 15.0966 17.2495 14.5 17.25ZM9.5 11.25C9.30109 11.25 9.11032 11.329 8.96967 11.4697C8.82902 11.6103 8.75 11.8011 8.75 12V15C8.75 15.1989 8.82902 15.3897 8.96967 15.5303C9.11032 15.671 9.30109 15.75 9.5 15.75H14.5C14.6989 15.75 14.8897 15.671 15.0303 15.5303C15.171 15.3897 15.25 15.1989 15.25 15V12C15.25 11.8011 15.171 11.6103 15.0303 11.4697C14.8897 11.329 14.6989 11.25 14.5 11.25H9.5Z" fill="url(#paint1_linear_2794_2034)"/>
<path d="M14 11.25H10C9.80109 11.25 9.61032 11.171 9.46967 11.0303C9.32902 10.8897 9.25 10.6989 9.25 10.5V8.5C9.25 7.77065 9.53973 7.07118 10.0555 6.55546C10.5712 6.03973 11.2707 5.75 12 5.75C12.7293 5.75 13.4288 6.03973 13.9445 6.55546C14.4603 7.07118 14.75 7.77065 14.75 8.5V10.5C14.75 10.6989 14.671 10.8897 14.5303 11.0303C14.3897 11.171 14.1989 11.25 14 11.25ZM10.75 9.75H13.25V8.5C13.25 8.16848 13.1183 7.85054 12.8839 7.61612C12.6495 7.3817 12.3315 7.25 12 7.25C11.6685 7.25 11.3505 7.3817 11.1161 7.61612C10.8817 7.85054 10.75 8.16848 10.75 8.5V9.75Z" fill="url(#paint2_linear_2794_2034)"/>
<defs>
<linearGradient id="paint0_linear_2794_2034" x1="12" y1="1.43799" x2="12" y2="22.607" gradientUnits="userSpaceOnUse">
<stop stop-color="#FF6A6A"/>
<stop offset="1" stop-color="#C83636"/>
</linearGradient>
<linearGradient id="paint1_linear_2794_2034" x1="12" y1="9.75" x2="12" y2="17.25" gradientUnits="userSpaceOnUse">
<stop stop-color="#FF6A6A"/>
<stop offset="1" stop-color="#C83636"/>
</linearGradient>
<linearGradient id="paint2_linear_2794_2034" x1="12" y1="5.75" x2="12" y2="11.25" gradientUnits="userSpaceOnUse">
<stop stop-color="#FF6A6A"/>
<stop offset="1" stop-color="#C83636"/>
</linearGradient>
</defs>
</svg>
