<svg width="24" height="24" viewBox="0 0 24 24" fill="none" xmlns="http://www.w3.org/2000/svg">
<path d="M22.56 3.83984H1.44C0.646078 3.83984 0 4.48592 0 5.27984V18.7198C0 19.5138 0.646078 20.1598 1.44 20.1598H22.56C23.3539 20.1598 24 19.5138 24 18.7198V5.27984C24 4.48592 23.3539 3.83984 22.56 3.83984ZM23.04 18.7198C23.04 18.9838 22.824 19.1998 22.56 19.1998H1.44C1.17506 19.1998 0.96 18.9838 0.96 18.7198V5.27984C0.96 5.01486 1.17506 4.79984 1.44 4.79984H22.56C22.824 4.79984 23.04 5.01486 23.04 5.27984V18.7198Z" fill="url(#paint0_linear_2554_4493)"/>
<path d="M0.47998 8.15967H23.52V10.0797H0.47998V8.15967Z" fill="url(#paint1_linear_2554_4493)"/>
<path d="M23.52 7.67969H0.48C0.215062 7.67969 0 7.8947 0 8.15969V10.0797C0 10.3447 0.215062 10.5597 0.48 10.5597H23.52C23.7849 10.5597 24 10.3447 24 10.0797V8.15969C24 7.8947 23.7849 7.67969 23.52 7.67969ZM23.04 9.59969H0.96V8.63969H23.04V9.59969ZM12.96 13.4397H4.32C4.05506 13.4397 3.84 13.6547 3.84 13.9197C3.84 14.1846 4.05506 14.3997 4.32 14.3997H12.96C13.2249 14.3997 13.44 14.1846 13.44 13.9197C13.44 13.6547 13.2249 13.4397 12.96 13.4397ZM9.12 15.3597H4.32C4.05506 15.3597 3.84 15.5748 3.84 15.8397C3.84 16.1046 4.05506 16.3197 4.32 16.3197H9.12C9.38494 16.3197 9.6 16.1046 9.6 15.8397C9.6 15.5748 9.38494 15.3597 9.12 15.3597Z" fill="url(#paint2_linear_2554_4493)"/>
<defs>
<linearGradient id="paint0_linear_2554_4493" x1="12" y1="3.83984" x2="12" y2="20.1598" gradientUnits="userSpaceOnUse">
<stop stop-color="#EC85FF"/>
<stop offset="1" stop-color="#9838A9"/>
</linearGradient>
<linearGradient id="paint1_linear_2554_4493" x1="12" y1="8.15967" x2="12" y2="10.0797" gradientUnits="userSpaceOnUse">
<stop stop-color="#EC85FF"/>
<stop offset="1" stop-color="#9838A9"/>
</linearGradient>
<linearGradient id="paint2_linear_2554_4493" x1="12" y1="7.67969" x2="12" y2="16.3197" gradientUnits="userSpaceOnUse">
<stop stop-color="#EC85FF"/>
<stop offset="1" stop-color="#9838A9"/>
</linearGradient>
</defs>
</svg>
