<svg width="36" height="36" viewBox="0 0 36 36" fill="none" xmlns="http://www.w3.org/2000/svg">
<g clip-path="url(#clip0_2088_43199)">
<g clip-path="url(#clip1_2088_43199)">
<path d="M23.6435 8.66998C24.1201 6.62337 22.8474 4.57791 20.8008 4.10131C18.7542 3.62471 16.7087 4.89745 16.2321 6.94406C15.7555 8.99067 17.0282 11.0361 19.0749 11.5127C21.1215 11.9893 23.1669 10.7166 23.6435 8.66998Z" fill="#FF6721"/>
<path d="M29.162 32.697C26.1018 28.9102 21.8711 25.899 18.3883 23.7634C18.1095 23.593 17.836 23.4291 17.5676 23.2705L19.6139 18.5465C19.6859 18.7534 19.7615 18.9648 19.8444 19.1838C20.7084 21.4612 22.1796 24.3645 24.6758 26.8641C24.9402 27.1283 25.2864 27.2604 25.6328 27.2604C25.979 27.2604 26.3255 27.1283 26.5898 26.8641C27.1182 26.3357 27.1182 25.479 26.5898 24.9506C24.4629 22.827 23.1446 20.2614 22.3753 18.2255C21.99 17.2084 21.7412 16.3267 21.5903 15.7078C21.5149 15.3984 21.4638 15.1547 21.4325 14.9925C21.4169 14.9113 21.4061 14.8509 21.3993 14.8127C21.396 14.7934 21.3939 14.7799 21.3926 14.7721C21.3919 14.7667 21.3919 14.7667 21.3919 14.7667C21.3667 14.5996 21.3105 14.4453 21.2322 14.3063C21.1666 13.8763 20.8894 13.4883 20.4606 13.3026L14.4993 10.7204C13.6039 9.28103 13.3126 8.15319 13.3135 7.2975C13.317 6.48324 13.5577 5.85386 13.9547 5.27218C14.545 4.40685 15.5509 3.71268 16.4264 3.27579C16.8617 3.0559 17.2589 2.89691 17.5393 2.79593C17.6796 2.74536 17.7907 2.7095 17.8629 2.68717C17.8991 2.67584 17.9255 2.66806 17.9409 2.66332C17.9483 2.66146 17.9532 2.66011 17.9554 2.65943C18.6758 2.4639 19.1022 1.72204 18.908 1.00116C18.7137 0.279595 17.971 -0.14766 17.2496 0.0466852H17.2493C17.1689 0.0720567 15.6497 0.474616 14.0344 1.53785C13.2282 2.07268 12.39 2.77936 11.7291 3.73264C11.0683 4.68035 10.6035 5.8997 10.6072 7.29716C10.6084 8.83382 11.1447 10.5153 12.327 12.351L8.80041 20.4928C7.58359 22.2709 6.38961 24.879 6.39063 28.181C6.38894 30.1899 6.83666 32.4265 7.91528 34.8065C8.25458 35.5563 8.99323 35.9998 9.76604 36C10.0458 36 10.3298 35.942 10.6013 35.8192C11.6224 35.3571 12.0759 34.1547 11.6138 33.1332C10.7535 31.228 10.4514 29.5947 10.4497 28.181C10.4502 26.8573 10.7214 25.7017 11.1183 24.7116L14.4373 26.1493C15.1045 26.5261 15.8259 26.9495 16.5789 27.416C19.7786 29.3913 23.5322 32.1659 25.9999 35.2427C26.4007 35.7405 26.9888 35.9993 27.582 35.9993C28.0291 35.9993 28.4786 35.8525 28.854 35.5503C29.7271 34.8476 29.8649 33.5699 29.162 32.697Z" fill="#FF6721"/>
</g>
</g>
<defs>
<clipPath id="clip0_2088_43199">
<rect width="36" height="36" fill="white"/>
</clipPath>
<clipPath id="clip1_2088_43199">
<rect width="36" height="36" fill="white"/>
</clipPath>
</defs>
</svg>
