<svg width="36" height="36" viewBox="0 0 36 36" fill="none" xmlns="http://www.w3.org/2000/svg">
<path d="M17.2882 3.44234C17.354 3.30953 17.4555 3.19774 17.5814 3.11958C17.7073 3.04142 17.8526 3 18.0007 3C18.1489 3 18.2942 3.04142 18.4201 3.11958C18.546 3.19774 18.6475 3.30953 18.7132 3.44234L22.1782 10.4608C22.4065 10.9228 22.7435 11.3225 23.1602 11.6255C23.5769 11.9286 24.0609 12.126 24.5707 12.2008L32.3197 13.3348C32.4666 13.3561 32.6045 13.418 32.718 13.5136C32.8314 13.6092 32.9159 13.7347 32.9618 13.8758C33.0077 14.0168 33.0132 14.168 32.9776 14.312C32.9421 14.456 32.867 14.5873 32.7607 14.6908L27.1567 20.1478C26.7872 20.508 26.5107 20.9526 26.351 21.4433C26.1913 21.934 26.1533 22.4562 26.2402 22.9648L27.5632 30.6748C27.5892 30.8216 27.5733 30.9727 27.5175 31.1109C27.4617 31.249 27.3681 31.3688 27.2476 31.4563C27.127 31.5439 26.9842 31.5958 26.8355 31.6062C26.6869 31.6165 26.5383 31.5849 26.4067 31.5148L19.4797 27.8728C19.0233 27.6332 18.5155 27.508 18 27.508C17.4845 27.508 16.9767 27.6332 16.5202 27.8728L9.59475 31.5148C9.46324 31.5845 9.31484 31.6158 9.16642 31.6052C9.018 31.5947 8.87552 31.5427 8.75519 31.4552C8.63485 31.3677 8.5415 31.2481 8.48573 31.1102C8.42997 30.9722 8.41403 30.8214 8.43975 30.6748L9.76125 22.9663C9.84854 22.4574 9.81072 21.9349 9.65105 21.4439C9.49138 20.9529 9.21466 20.5081 8.84475 20.1478L3.24075 14.6923C3.13364 14.5889 3.05774 14.4574 3.02169 14.313C2.98564 14.1685 2.9909 14.0168 3.03686 13.8751C3.08283 13.7335 3.16765 13.6076 3.28166 13.5118C3.39568 13.416 3.5343 13.3542 3.68175 13.3333L11.4292 12.2008C11.9396 12.1266 12.4243 11.9294 12.8416 11.6263C13.2589 11.3232 13.5963 10.9232 13.8247 10.4608L17.2882 3.44234Z" stroke="#FBA90B" stroke-width="2" stroke-linecap="round" stroke-linejoin="round"/>
</svg>
