<svg width="36" height="36" viewBox="0 0 36 36" fill="none" xmlns="http://www.w3.org/2000/svg">
<path d="M18.0002 7.5C18.002 6.90005 17.8838 6.30579 17.6525 5.7522C17.4213 5.1986 17.0816 4.69684 16.6536 4.27642C16.2256 3.856 15.7179 3.52541 15.1602 3.3041C14.6026 3.08278 14.0063 2.97521 13.4065 2.98772C12.8067 3.00022 12.2154 3.13254 11.6674 3.3769C11.1195 3.62126 10.626 3.97272 10.2158 4.41061C9.80571 4.8485 9.4873 5.36398 9.27931 5.92673C9.07132 6.48948 8.97797 7.08814 9.00473 7.6875C8.12304 7.9142 7.30449 8.33857 6.61108 8.92847C5.91767 9.51836 5.36759 10.2583 5.0025 11.0923C4.63741 11.9262 4.46687 12.8323 4.50382 13.742C4.54076 14.6516 4.78421 15.5409 5.21573 16.3425C4.457 16.9589 3.86037 17.7513 3.47774 18.6509C3.09511 19.5505 2.93807 20.5299 3.02028 21.504C3.10249 22.4781 3.42146 23.4173 3.94944 24.24C4.47743 25.0627 5.19843 25.744 6.04973 26.2245C5.94461 27.0379 6.00734 27.8641 6.23406 28.6523C6.46079 29.4404 6.84668 30.1738 7.36791 30.8069C7.88914 31.4401 8.53465 31.9597 9.26456 32.3336C9.99448 32.7076 10.7933 32.9279 11.6117 32.981C12.4301 33.0341 13.2507 32.9189 14.0228 32.6424C14.7949 32.366 15.5022 31.9341 16.1009 31.3736C16.6996 30.8131 17.177 30.1358 17.5037 29.3836C17.8304 28.6314 17.9994 27.8201 18.0002 27V7.5Z" stroke="#FF595C" stroke-width="2" stroke-linecap="round" stroke-linejoin="round"/>
<path d="M18 7.5C17.9983 6.90005 18.1165 6.30579 18.3477 5.7522C18.579 5.1986 18.9186 4.69684 19.3466 4.27642C19.7746 3.856 20.2824 3.52541 20.84 3.3041C21.3977 3.08278 21.994 2.97521 22.5938 2.98772C23.1936 3.00022 23.7849 3.13254 24.3328 3.3769C24.8808 3.62126 25.3743 3.97272 25.7844 4.41061C26.1945 4.8485 26.513 5.36398 26.7209 5.92673C26.9289 6.48948 27.0223 7.08814 26.9955 7.6875C27.8772 7.9142 28.6958 8.33857 29.3892 8.92847C30.0826 9.51836 30.6327 10.2583 30.9978 11.0923C31.3628 11.9262 31.5334 12.8323 31.4964 13.742C31.4595 14.6516 31.216 15.5409 30.7845 16.3425C31.5433 16.9589 32.1399 17.7513 32.5225 18.6509C32.9051 19.5505 33.0622 20.5299 32.98 21.504C32.8978 22.4781 32.5788 23.4173 32.0508 24.24C31.5228 25.0627 30.8018 25.744 29.9505 26.2245C30.0556 27.0379 29.9929 27.8641 29.7662 28.6523C29.5395 29.4404 29.1536 30.1738 28.6323 30.8069C28.1111 31.4401 27.4656 31.9597 26.7357 32.3336C26.0058 32.7076 25.207 32.9279 24.3886 32.981C23.5702 33.0341 22.7496 32.9189 21.9774 32.6424C21.2053 32.366 20.4981 31.9341 19.8994 31.3736C19.3007 30.8131 18.8233 30.1358 18.4966 29.3836C18.1699 28.6314 18.0009 27.8201 18 27V7.5Z" stroke="#FF595C" stroke-width="2" stroke-linecap="round" stroke-linejoin="round"/>
<path d="M22.5 19.5C21.2407 19.057 20.141 18.2505 19.34 17.1825C18.539 16.1145 18.0727 14.833 18 13.5C17.9273 14.833 17.461 16.1145 16.66 17.1825C15.859 18.2505 14.7593 19.057 13.5 19.5" stroke="#FF595C" stroke-width="2" stroke-linecap="round" stroke-linejoin="round"/>
<path d="M26.3984 9.75C26.7615 9.12088 26.9668 8.41323 26.9969 7.6875" stroke="#FF595C" stroke-width="2" stroke-linecap="round" stroke-linejoin="round"/>
<path d="M9.00488 7.6875C9.03455 8.4131 9.23938 9.12074 9.60188 9.75" stroke="#FF595C" stroke-width="2" stroke-linecap="round" stroke-linejoin="round"/>
<path d="M5.21582 16.344C5.49023 16.1205 5.78387 15.9217 6.09332 15.75" stroke="#FF595C" stroke-width="2" stroke-linecap="round" stroke-linejoin="round"/>
<path d="M29.9072 15.75C30.2167 15.9217 30.5103 16.1205 30.7847 16.344" stroke="#FF595C" stroke-width="2" stroke-linecap="round" stroke-linejoin="round"/>
<path d="M9.0003 27C7.96655 27.0005 6.95021 26.7339 6.0498 26.226" stroke="#FF595C" stroke-width="2" stroke-linecap="round" stroke-linejoin="round"/>
<path d="M29.9505 26.226C29.0501 26.7339 28.0338 27.0005 27 27" stroke="#FF595C" stroke-width="2" stroke-linecap="round" stroke-linejoin="round"/>
</svg>
