<svg width="36" height="36" viewBox="0 0 36 36" fill="none" xmlns="http://www.w3.org/2000/svg">
<path d="M30.4808 16.4883C30.4808 17.9834 30.4808 19.4785 30.4808 20.9736C30.4808 22.8068 30.4808 24.64 30.4808 26.4732C30.4808 26.7766 30.4712 27.0784 30.4318 27.3799C30.4523 27.2273 30.4728 27.0746 30.4933 26.922C30.4275 27.3914 30.3029 27.8476 30.1204 28.285C30.1783 28.1479 30.2362 28.0107 30.294 27.8735C30.1119 28.2994 29.8786 28.6984 29.5972 29.0662C29.687 28.95 29.7767 28.8338 29.8665 28.7176C29.5839 29.0805 29.2593 29.4055 28.8967 29.6886C29.013 29.5988 29.1292 29.509 29.2454 29.4192C28.8781 29.7011 28.4794 29.9348 28.0538 30.1172C28.1909 30.0594 28.3281 30.0015 28.4653 29.9436C28.0281 30.1264 27.5721 30.2513 27.1029 30.3172C27.2555 30.2967 27.4082 30.2761 27.5608 30.2556C27.1062 30.3153 26.6501 30.3047 26.193 30.3047C25.4968 30.3047 24.8007 30.3047 24.1045 30.3047C21.9362 30.3047 19.7679 30.3047 17.5996 30.3047C15.5566 30.3047 13.5136 30.3047 11.4706 30.3047C10.9923 30.3047 10.514 30.3047 10.0358 30.3047C9.65632 30.3047 9.28068 30.3052 8.90264 30.2556C9.05529 30.2761 9.20794 30.2967 9.36059 30.3172C8.89111 30.2513 8.43482 30.1264 7.9974 29.9436C8.13455 30.0015 8.27173 30.0594 8.40891 30.1172C7.98292 29.9348 7.58379 29.7011 7.21595 29.4192C7.33218 29.509 7.44837 29.5988 7.5646 29.6886C7.20154 29.4055 6.87652 29.0805 6.59337 28.7176C6.68316 28.8338 6.77295 28.95 6.86274 29.0662C6.58082 28.6985 6.34703 28.2994 6.16457 27.8735C6.22243 28.0107 6.28034 28.1479 6.3382 28.285C6.15532 27.8477 6.03038 27.3914 5.96449 26.922C5.98499 27.0746 6.00552 27.2273 6.02602 27.3799C5.96636 26.9253 5.9769 26.4691 5.9769 26.012C5.9769 25.3158 5.9769 24.6197 5.9769 23.9235C5.9769 21.7552 5.9769 19.5869 5.9769 17.4186C5.9769 15.3756 5.9769 13.3325 5.9769 11.2895C5.9769 10.8113 5.9769 10.333 5.9769 9.85475C5.9769 9.47531 5.97641 9.09967 6.02602 8.7217C6.00552 8.87435 5.98499 9.027 5.96449 9.17965C6.03038 8.71038 6.15532 8.2543 6.3382 7.81713C6.28034 7.95428 6.22243 8.09146 6.16457 8.22864C6.34703 7.80296 6.58085 7.40419 6.86274 7.0368C6.77295 7.15303 6.68316 7.26922 6.59337 7.38545C6.87655 7.02278 7.20161 6.69818 7.5646 6.41542C7.44837 6.50521 7.33218 6.595 7.21595 6.68478C7.58383 6.40325 7.98295 6.16985 8.40891 5.98767C8.27173 6.04554 8.13455 6.10344 7.9974 6.16134C8.43485 5.97878 8.89118 5.85404 9.36059 5.7883C9.20794 5.8088 9.05529 5.82933 8.90264 5.84982C9.4784 5.77441 10.0691 5.80078 10.6487 5.80078C11.6314 5.80078 12.6142 5.80078 13.597 5.80078C15.5426 5.80078 17.4883 5.80078 19.4339 5.80078C19.5537 5.80078 19.6735 5.80078 19.7933 5.80078C20.7323 5.80078 21.5159 5.01718 21.5159 4.07812C21.5159 3.13907 20.7323 2.35547 19.7933 2.35547C18.2984 2.35547 16.8034 2.35547 15.3085 2.35547C13.4754 2.35547 11.6424 2.35547 9.80936 2.35547C8.42993 2.35547 7.06858 2.68284 5.89144 3.41982C4.2571 4.44312 3.01021 6.16138 2.67144 8.07402C2.55522 8.73018 2.53156 9.36207 2.53156 10.0194C2.53156 10.6951 2.53156 11.3709 2.53156 12.0467C2.53156 14.2003 2.53156 16.3539 2.53156 18.5075C2.53156 20.5706 2.53156 22.6337 2.53156 24.6968C2.53156 26.2049 2.42099 27.7781 3.01594 29.2009C3.21865 29.6857 3.42618 30.1491 3.72465 30.5827C4.01476 31.0041 4.34027 31.4115 4.71043 31.7663C5.47174 32.4958 6.35772 33.0063 7.34213 33.3681C8.17674 33.6748 9.07477 33.75 9.95803 33.75C11.4978 33.75 13.0376 33.75 14.5774 33.75C16.8618 33.75 19.1463 33.75 21.4307 33.75C23.0679 33.75 24.7052 33.75 26.3424 33.75C27.0656 33.75 27.7756 33.7134 28.4888 33.554C30.3746 33.1327 32.0551 31.8239 33.0038 30.1532C33.6575 29.002 33.9261 27.721 33.9261 26.4075C33.9261 25.6584 33.9261 24.9094 33.9261 24.1604C33.9261 22.0109 33.9261 19.8615 33.9261 17.712C33.9261 17.304 33.9261 16.8962 33.9261 16.4883C33.9261 15.5492 33.1425 14.7656 32.2034 14.7656C31.2644 14.7656 30.4808 15.5492 30.4808 16.4883Z" fill="#CE5CFF"/>
<path d="M31.8681 8.27174L19.3418 20.798L15.3047 21.0448L15.485 16.9413L28.0114 4.41499C28.455 3.97132 29.1649 3.96211 29.5971 4.39432L31.8887 6.68598C32.3208 7.1184 32.3118 7.82806 31.8681 8.27174Z" fill="#CE5CFF"/>
</svg>
