<svg width="36" height="36" viewBox="0 0 36 36" fill="none" xmlns="http://www.w3.org/2000/svg">
<path d="M13.5 25.5H10.5C8.51088 25.5 6.60322 24.7098 5.1967 23.3033C3.79018 21.8968 3 19.9891 3 18C3 16.0109 3.79018 14.1032 5.1967 12.6967C6.60322 11.2902 8.51088 10.5 10.5 10.5H13.5" stroke="#F0B614" stroke-width="4" stroke-linecap="round" stroke-linejoin="round"/>
<path d="M22.5 10.5H25.5C27.4891 10.5 29.3968 11.2902 30.8033 12.6967C32.2098 14.1032 33 16.0109 33 18C33 19.9891 32.2098 21.8968 30.8033 23.3033C29.3968 24.7098 27.4891 25.5 25.5 25.5H22.5" stroke="#F0B614" stroke-width="4" stroke-linecap="round" stroke-linejoin="round"/>
<path d="M12 18H24" stroke="#F0B614" stroke-width="4" stroke-linecap="round" stroke-linejoin="round"/>
</svg>
