<svg width="36" height="36" viewBox="0 0 36 36" fill="none" xmlns="http://www.w3.org/2000/svg">
<g clip-path="url(#clip0_2228_274)">
<path d="M22.9106 29.9812C22.7614 29.9812 22.6184 30.0405 22.5129 30.146C22.4074 30.2515 22.3481 30.3946 22.3481 30.5437C22.3481 31.6984 21.8894 32.8058 21.0729 33.6223C20.2565 34.4388 19.1491 34.8975 17.9944 34.8975C16.8397 34.8975 15.7323 34.4388 14.9158 33.6223C14.0993 32.8058 13.6406 31.6984 13.6406 30.5437C13.6406 30.3946 13.5814 30.2515 13.4759 30.146C13.3704 30.0405 13.2273 29.9812 13.0781 29.9812C12.9289 29.9812 12.7859 30.0405 12.6804 30.146C12.5749 30.2515 12.5156 30.3946 12.5156 30.5437C12.5156 31.9923 13.0911 33.3816 14.1154 34.4059C15.1397 35.4302 16.5289 36.0056 17.9775 36.0056C19.4261 36.0056 20.8153 35.4302 21.8396 34.4059C22.8639 33.3816 23.4394 31.9923 23.4394 30.5437C23.4396 30.4002 23.385 30.262 23.2867 30.1575C23.1884 30.0529 23.0539 29.9899 22.9106 29.9812Z" fill="#D16868"/>
<path d="M18.0017 12.8138C13.3009 12.8138 8.79266 14.6811 5.46869 18.0051C2.14473 21.3291 0.277344 25.8373 0.277344 30.5381H3.17984C3.17984 26.6071 4.74143 22.8371 7.52107 20.0575C10.3007 17.2778 14.0707 15.7163 18.0017 15.7163C21.9327 15.7163 25.7027 17.2778 28.4824 20.0575C31.262 22.8371 32.8236 26.6071 32.8236 30.5381H35.7261C35.7261 28.2105 35.2676 25.9057 34.3769 23.7553C33.4862 21.6049 32.1806 19.651 30.5347 18.0051C28.8889 16.3592 26.935 15.0537 24.7845 14.1629C22.6341 13.2722 20.3293 12.8138 18.0017 12.8138Z" fill="#D16868"/>
<path d="M24.1252 19.9294C22.2617 18.8568 20.1491 18.2928 17.9989 18.2939C15.8488 18.2949 13.7368 18.8611 11.8744 19.9356C10.012 21.01 8.4647 22.5551 7.38755 24.4159C6.3104 26.2768 5.74121 28.388 5.73703 30.5381C5.73703 30.6873 5.79629 30.8304 5.90178 30.9359C6.00727 31.0414 6.15035 31.1006 6.29953 31.1006H9.04453C9.19372 31.1006 9.33679 31.0414 9.44228 30.9359C9.54777 30.8304 9.60703 30.6873 9.60703 30.5381C9.60501 29.0629 9.9919 27.6131 10.7287 26.335C11.4655 25.0569 12.5262 23.9956 13.8039 23.2581C15.0816 22.5206 16.5311 22.1329 18.0064 22.1341C19.4817 22.1353 20.9306 22.5254 22.207 23.265C22.6188 23.5057 23.0085 23.7824 23.3714 24.0919L19.4789 28.1869C19.0369 27.9056 18.5234 27.7572 17.9995 27.7594C17.4499 27.7594 16.9127 27.9223 16.4557 28.2277C15.9988 28.533 15.6426 28.967 15.4323 29.4747C15.222 29.9825 15.167 30.5412 15.2742 31.0802C15.3814 31.6193 15.646 32.1144 16.0347 32.503C16.4233 32.8916 16.9184 33.1563 17.4574 33.2635C17.9964 33.3707 18.5552 33.3157 19.0629 33.1054C19.5707 32.895 20.0046 32.5389 20.31 32.0819C20.6153 31.625 20.7783 31.0877 20.7783 30.5381C20.7798 29.9677 20.6027 29.4111 20.272 28.9462L24.187 24.8569C24.6143 25.3079 24.9915 25.804 25.312 26.3363C26.0498 27.6137 26.4378 29.063 26.437 30.5381C26.437 30.6873 26.4963 30.8304 26.6018 30.9359C26.7073 31.0414 26.8503 31.1006 26.9995 31.1006H29.7445C29.8937 31.1006 30.0368 31.0414 30.1423 30.9359C30.2478 30.8304 30.307 30.6873 30.307 30.5381C30.2966 28.3832 29.72 26.2688 28.635 24.4069C27.5501 22.545 25.9948 21.0009 24.1252 19.9294ZM10.057 25.3125L9.23578 24.84L8.63953 24.4913C9.49808 23.1657 10.6271 22.0367 11.9527 21.1781L12.7739 22.5956C11.6938 23.3081 10.7695 24.2324 10.057 25.3125ZM22.2633 22.0387C21.1098 21.4595 19.8505 21.1207 18.562 21.0431V19.4006C20.1313 19.4856 21.6649 19.9016 23.062 20.6213L22.2633 22.0387ZM17.9995 32.2087C17.7422 32.2193 17.4859 32.1709 17.2502 32.0671C17.0145 31.9633 16.8057 31.8069 16.6397 31.61C16.4738 31.413 16.3552 31.1807 16.2929 30.9308C16.2306 30.6809 16.2263 30.4201 16.2804 30.1683C16.3345 29.9165 16.4455 29.6804 16.6049 29.4782C16.7643 29.2759 16.9679 29.1128 17.2 29.0013C17.4322 28.8899 17.6868 28.8331 17.9444 28.8352C18.2019 28.8374 18.4555 28.8984 18.6858 29.0138L17.6002 30.1388C17.4988 30.2436 17.4421 30.3838 17.4421 30.5297C17.4421 30.6756 17.4988 30.8157 17.6002 30.9206C17.7039 31.0177 17.8405 31.072 17.9827 31.0725C18.0571 31.0722 18.1307 31.0571 18.1993 31.0282C18.2678 30.9992 18.3299 30.9569 18.382 30.9037L19.4677 29.7787C19.6013 30.0103 19.6766 30.271 19.687 30.5381C19.6826 30.9827 19.5028 31.4076 19.1868 31.7205C18.8709 32.0333 18.4442 32.2088 17.9995 32.2087ZM27.4945 29.9587C27.4191 28.6674 27.0782 27.4056 26.4933 26.2519L27.9164 25.4306C28.6369 26.8275 29.0529 28.3612 29.137 29.9306L27.4945 29.9587ZM29.767 15.8512C31.1901 16.9927 32.4406 18.3341 33.4795 19.8337V0H29.767V15.8512ZM22.9552 2.21625C22.806 2.21625 22.6629 2.27551 22.5574 2.381C22.4519 2.48649 22.3927 2.62957 22.3927 2.77875V11.8125C22.3939 11.9332 22.4339 12.0504 22.5068 12.1466C22.5798 12.2429 22.6817 12.3131 22.7977 12.3469C24.0573 12.6898 25.2773 13.1649 26.437 13.7644C26.5144 13.8072 26.6018 13.8286 26.6902 13.8263C26.7915 13.829 26.8913 13.8016 26.977 13.7475C27.0583 13.698 27.1258 13.6287 27.173 13.5461C27.2202 13.4634 27.2457 13.3702 27.247 13.275V2.7675C27.247 2.61832 27.1878 2.47524 27.0823 2.36975C26.9768 2.26426 26.8337 2.205 26.6845 2.205L22.9552 2.21625ZM26.1164 12.375C25.2737 11.9833 24.4032 11.6543 23.512 11.3906V3.32437H26.1164V12.375ZM16.1433 11.8125C17.3775 11.685 18.6216 11.685 19.8558 11.8125V1.125H16.1433V11.8125ZM9.33141 6.64875C9.18222 6.64875 9.03915 6.70801 8.93366 6.8135C8.82817 6.91899 8.76891 7.06207 8.76891 7.21125V13.275C8.77026 13.3702 8.79574 13.4634 8.84296 13.5461C8.89018 13.6287 8.9576 13.698 9.03891 13.7475C9.12442 13.7969 9.22142 13.8229 9.32016 13.8229C9.4189 13.8229 9.5159 13.7969 9.60141 13.7475C10.7468 13.1668 11.9496 12.7069 13.1902 12.375C13.3061 12.3412 13.408 12.271 13.481 12.1748C13.5539 12.0785 13.5939 11.9614 13.5952 11.8406V7.2C13.5952 7.05082 13.5359 6.90774 13.4304 6.80225C13.3249 6.69676 13.1818 6.6375 13.0327 6.6375L9.33141 6.64875ZM12.487 11.4019C11.5962 11.6619 10.7257 11.9871 9.88266 12.375V7.75125H12.487V11.4019ZM2.51953 19.8337C3.55846 18.3341 4.80892 16.9927 6.23203 15.8512V12.1838H2.51953V19.8337Z" fill="#D16868"/>
</g>
<defs>
<clipPath id="clip0_2228_274">
<rect width="36" height="36" fill="white"/>
</clipPath>
</defs>
</svg>
