<svg width="36" height="36" viewBox="0 0 36 36" fill="none" xmlns="http://www.w3.org/2000/svg">
<path d="M15.7495 30.75L30.7495 15.75C31.4504 15.0631 32.0082 14.2441 32.3906 13.3403C32.773 12.4365 32.9725 11.4658 32.9775 10.4845C32.9824 9.5031 32.7928 8.53049 32.4195 7.62287C32.0462 6.71525 31.4968 5.89063 30.8028 5.1967C30.1089 4.50276 29.2843 3.95327 28.3766 3.58001C27.469 3.20674 26.4964 3.0171 25.515 3.02206C24.5337 3.02702 23.563 3.22647 22.6592 3.60888C21.7554 3.9913 20.9364 4.54909 20.2495 5.25L5.24952 20.25C4.54861 20.9369 3.99082 21.7559 3.6084 22.6597C3.22599 23.5635 3.02654 24.5342 3.02158 25.5155C3.01662 26.4969 3.20626 27.4695 3.57953 28.3771C3.95279 29.2847 4.50228 30.1094 5.19622 30.8033C5.89015 31.4972 6.71477 32.0467 7.62239 32.42C8.53001 32.7933 9.50262 32.9829 10.484 32.9779C11.4653 32.973 12.436 32.7735 13.3398 32.3911C14.2436 32.0087 15.0626 31.4509 15.7495 30.75Z" stroke="#2AABEE" stroke-width="2" stroke-linecap="round" stroke-linejoin="round"/>
<path d="M12.75 12.75L23.25 23.25" stroke="#2AABEE" stroke-width="2" stroke-linecap="round" stroke-linejoin="round"/>
</svg>
