<svg width="24" height="24" viewBox="0 0 24 24" fill="none" xmlns="http://www.w3.org/2000/svg">
<g clip-path="url(#clip0_2252_1012)">
<g clip-path="url(#clip1_2252_1012)">
<path d="M15.7623 5.77999C16.0801 4.41559 15.2316 3.05194 13.8672 2.73421C12.5028 2.41648 11.1391 3.26497 10.8214 4.62938C10.5037 5.99378 11.3522 7.35743 12.7166 7.67516C14.081 7.99289 15.4446 7.1444 15.7623 5.77999Z" fill="white"/>
<path d="M19.4407 21.798C17.4006 19.2735 14.5801 17.266 12.2582 15.8423C12.0724 15.7287 11.89 15.6195 11.7111 15.5137L13.0753 12.3644C13.1233 12.5023 13.1737 12.6432 13.229 12.7892C13.8049 14.3075 14.7857 16.243 16.4499 17.9094C16.6261 18.0856 16.857 18.1736 17.0879 18.1736C17.3187 18.1736 17.5497 18.0856 17.7259 17.9094C18.0782 17.5572 18.0782 16.986 17.7259 16.6337C16.3079 15.218 15.4291 13.5077 14.9162 12.1503C14.6593 11.4723 14.4935 10.8845 14.3929 10.4719C14.3426 10.2656 14.3085 10.1031 14.2877 9.99501C14.2773 9.94088 14.2701 9.90063 14.2656 9.87514C14.2633 9.86229 14.262 9.85327 14.2611 9.84808C14.2606 9.84447 14.2606 9.84447 14.2606 9.84447C14.2438 9.73306 14.2064 9.63023 14.1542 9.53753C14.1104 9.25089 13.9256 8.99222 13.6397 8.86841L9.66557 7.14698C9.06861 6.18738 8.87443 5.43549 8.875 4.86502C8.87737 4.32219 9.03783 3.9026 9.30248 3.51481C9.69602 2.93792 10.3666 2.47515 10.9503 2.18389C11.2405 2.03729 11.5053 1.9313 11.6922 1.86398C11.7857 1.83026 11.8598 1.80636 11.908 1.79147C11.9321 1.78392 11.9497 1.77873 11.9599 1.77557C11.9649 1.77433 11.9682 1.77343 11.9696 1.77298C12.4499 1.64263 12.7342 1.14805 12.6047 0.667464C12.4751 0.186422 11.98 -0.0984144 11.4991 0.0311489H11.4989C11.4453 0.0480632 10.4325 0.316436 9.35559 1.02526C8.81817 1.38181 8.25932 1.85293 7.81876 2.48845C7.3782 3.12026 7.06833 3.93316 7.07081 4.8648C7.0716 5.88924 7.42917 7.0102 8.21737 8.23401L5.86629 13.6619C5.05508 14.8473 4.25909 16.5861 4.25977 18.7874C4.25864 20.1267 4.55712 21.6177 5.2762 23.2044C5.5024 23.7043 5.99484 23.9999 6.51004 24C6.69655 24 6.88588 23.9613 7.06686 23.8795C7.7476 23.5714 8.04992 22.7698 7.74185 22.0888C7.16835 20.8187 6.96695 19.7298 6.96583 18.7874C6.96617 17.9049 7.14692 17.1345 7.41157 16.4744L9.62419 17.4329C10.069 17.6841 10.55 17.9664 11.052 18.2774C13.1851 19.5942 15.6875 21.4439 17.3326 23.4952C17.5998 23.827 17.9919 23.9996 18.3874 23.9996C18.6854 23.9996 18.9851 23.9017 19.2353 23.7002C19.8174 23.2318 19.9093 22.38 19.4407 21.798Z" fill="white"/>
</g>
</g>
<defs>
<clipPath id="clip0_2252_1012">
<rect width="24" height="24" fill="white"/>
</clipPath>
<clipPath id="clip1_2252_1012">
<rect width="24" height="24" fill="white"/>
</clipPath>
</defs>
</svg>
