<svg width="32" height="32" viewBox="0 0 32 32" fill="none" xmlns="http://www.w3.org/2000/svg">
<g clip-path="url(#clip0_3639_928)">
<path d="M14.5057 6.11066C14.8547 4.61214 16.3526 3.68007 17.8512 4.02904C19.3496 4.37806 20.2817 5.87597 19.9328 7.37447C19.5838 8.87301 18.0859 9.805 16.5873 9.45609C15.0888 9.10711 14.1567 7.60924 14.5057 6.11066Z" stroke="#FC5050"/>
<path d="M15.0293 0.522461C15.385 0.428099 15.7509 0.639537 15.8467 0.995117C15.9424 1.35116 15.7311 1.71781 15.375 1.81445L15.3672 1.81641H15.3652L15.3594 1.81836L15.3467 1.82227C15.3427 1.8235 15.3085 1.83334 15.2783 1.84277L14.9775 1.94434C14.7205 2.03691 14.3578 2.18191 13.96 2.38281C13.1685 2.77815 12.2153 3.42476 11.6377 4.27148C11.2464 4.8449 11.0006 5.4849 10.9971 6.30078V6.30176C10.9962 7.15764 11.2882 8.22271 12.0967 9.52246L12.1797 9.65527L12.3232 9.71777L17.4707 11.9473C17.6754 12.0359 17.8097 12.2213 17.8418 12.4307L17.8555 12.5215L17.9004 12.6006C17.9204 12.6361 17.9379 12.6731 17.9512 12.7109L17.9795 12.8281L17.9805 12.832L17.9824 12.8438V12.8477C17.9826 12.8488 17.9832 12.8501 17.9834 12.8516C17.9845 12.8584 17.9863 12.8679 17.9883 12.8789V12.8799C17.9944 12.9143 18.0046 12.969 18.0186 13.042V13.043C18.0471 13.1907 18.093 13.4093 18.1602 13.6846C18.2608 14.0975 18.4099 14.6402 18.6221 15.2656L18.8555 15.918C19.5353 17.7171 20.7067 20.0014 22.6094 21.9014V21.9023C22.8378 22.1307 22.8665 22.4827 22.6953 22.7422L22.6094 22.8477C22.4786 22.9781 22.3084 23.043 22.1367 23.043C22.0078 23.043 21.8796 23.007 21.7686 22.9336L21.6641 22.8477C19.5743 20.755 18.3362 18.3167 17.6055 16.3906C17.5361 16.2072 17.4724 16.0293 17.4111 15.8535L16.9893 14.6426L16.4795 15.8193L14.7129 19.8984L14.5371 20.3037L14.917 20.5283C15.1468 20.6642 15.381 20.8037 15.6191 20.9492C18.6096 22.7829 22.2057 25.3474 24.7949 28.5508V28.5518C25.2288 29.0906 25.1443 29.8799 24.6055 30.3135C24.3734 30.5004 24.0964 30.5908 23.8203 30.5908C23.4528 30.5908 23.09 30.4301 22.8428 30.123C20.6589 27.4005 17.3613 24.9689 14.5801 23.252H14.5791C13.923 22.8455 13.2949 22.4766 12.7139 22.1484L12.6904 22.1357L12.667 22.125L9.80078 20.8828L9.3291 20.6787L9.1377 21.1562C8.77371 22.0642 8.52492 23.1248 8.52441 24.3379V24.3389C8.52587 25.5538 8.7694 26.931 9.43457 28.5039L9.57422 28.8213C9.85937 29.4517 9.57935 30.1942 8.94922 30.4795C8.78085 30.5557 8.60562 30.5908 8.43359 30.5908C7.95525 30.5906 7.50011 30.3163 7.29102 29.8545V29.8535C6.38712 27.859 6.01717 25.9979 6.01855 24.3389V24.3379C6.01779 21.6113 7.00346 19.4552 8.0127 17.9805L8.03906 17.9414L8.05859 17.8975L11.1045 10.8652L11.21 10.6211L11.0654 10.3965C10.0816 8.86891 9.66109 7.50905 9.66016 6.30176V6.30078C9.65728 5.20836 10.0201 4.25402 10.5391 3.50977L10.54 3.50879C11.064 2.75297 11.734 2.18307 12.3955 1.74414C13.663 0.910161 14.8569 0.572489 15.0293 0.522461Z" stroke="#FC5050"/>
</g>
<defs>
<clipPath id="clip0_3639_928">
<rect width="31.0909" height="31.0909" fill="white"/>
</clipPath>
</defs>
</svg>
