<svg width="20" height="20" viewBox="0 0 20 20" fill="none" xmlns="http://www.w3.org/2000/svg">
<g clip-path="url(#clip0_2218_2463)">
<mask id="mask0_2218_2463" style="mask-type:luminance" maskUnits="userSpaceOnUse" x="0" y="0" width="20" height="20">
<path d="M0 0H20V20H0V0Z" fill="white"/>
</mask>
<g mask="url(#mask0_2218_2463)">
<path d="M5.83203 4.58317C5.83203 3.4781 6.27102 2.41829 7.05242 1.63689C7.83382 0.855491 8.89363 0.416504 9.9987 0.416504C11.1038 0.416504 12.1636 0.855491 12.945 1.63689C13.7264 2.41829 14.1654 3.4781 14.1654 4.58317V9.16651C14.1654 10.2716 13.7264 11.3314 12.945 12.1128C12.1636 12.8942 11.1038 13.3332 9.9987 13.3332C8.89363 13.3332 7.83382 12.8942 7.05242 12.1128C6.27102 11.3314 5.83203 10.2716 5.83203 9.16651V4.58317Z" fill="white"/>
<path d="M10.0042 14.9998H9.99421C8.8329 14.9988 7.69831 14.6513 6.7356 14.0018C5.77289 13.3523 5.02584 12.4304 4.59004 11.354C4.50615 11.1506 4.3452 10.9886 4.14233 10.9034C3.93946 10.8182 3.71113 10.8167 3.50715 10.8992C3.30318 10.9817 3.14011 11.1415 3.05354 11.3438C2.96697 11.5461 2.96391 11.7744 3.04504 11.979C3.55267 13.2322 4.38937 14.325 5.46675 15.1421C6.54412 15.9591 7.82217 16.4699 9.16588 16.6206V19.1665C9.16588 19.3875 9.25367 19.5994 9.40995 19.7557C9.56623 19.912 9.77819 19.9998 9.99921 19.9998C10.2202 19.9998 10.4322 19.912 10.5885 19.7557C10.7447 19.5994 10.8325 19.3875 10.8325 19.1665V16.6206C12.1764 16.4701 13.4546 15.9593 14.5322 15.1423C15.6097 14.3252 16.4465 13.2323 16.9542 11.979C17.0353 11.7744 17.0323 11.5461 16.9457 11.3438C16.8591 11.1415 16.6961 10.9817 16.4921 10.8992C16.2881 10.8167 16.0598 10.8182 15.8569 10.9034C15.654 10.9886 15.4931 11.1506 15.4092 11.354C14.9734 12.4306 14.2263 13.3527 13.2634 14.0022C12.3005 14.6517 11.1657 14.9991 10.0042 14.9998Z" fill="white"/>
</g>
</g>
<defs>
<clipPath id="clip0_2218_2463">
<rect width="20" height="20" fill="white"/>
</clipPath>
</defs>
</svg>
