<svg width="20" height="16" viewBox="0 0 20 16" fill="none" xmlns="http://www.w3.org/2000/svg">
<path d="M9.31392 1.17277L7.99752 0C3.04166 3.01571 0.718596 6.45026 0.0991127 10.3037C-0.365499 13.4869 0.796031 16 3.73857 16C5.82933 16 7.84265 14.4921 8.30726 11.9791C8.69444 9.04712 7.14573 7.28796 5.20985 6.86911C5.9842 4.02094 9.23648 1.17277 9.31392 1.17277ZM15.9734 6.70157C16.8251 3.93718 19.9226 1.17277 20 1.17277L18.6836 0C13.7277 3.01571 11.4047 6.45026 10.7852 10.3037C10.3206 13.4869 11.4821 16 14.4247 16C16.5154 16 18.5287 14.4921 18.9159 11.9791C19.3805 9.04712 17.9092 7.12042 15.9734 6.70157Z" fill="url(#paint0_radial_2493_16797)"/>
<defs>
<radialGradient id="paint0_radial_2493_16797" cx="0" cy="0" r="1" gradientTransform="matrix(6.85714 13.2571 -16.5714 5.48571 5.71429 2.74286)" gradientUnits="userSpaceOnUse">
<stop stop-color="#FFA800"/>
<stop offset="1" stop-color="#FF4D00"/>
</radialGradient>
</defs>
</svg>
