<svg width="26" height="26" viewBox="0 0 26 26" fill="none" xmlns="http://www.w3.org/2000/svg">
<path d="M9.75033 18.4167H7.58366C6.14707 18.4167 4.76932 17.846 3.7535 16.8302C2.73768 15.8144 2.16699 14.4366 2.16699 13C2.16699 11.5634 2.73768 10.1857 3.7535 9.16985C4.76932 8.15403 6.14707 7.58334 7.58366 7.58334H9.75033" stroke="white" stroke-width="2" stroke-linecap="round" stroke-linejoin="round"/>
<path d="M16.25 7.58334H18.4167C19.8533 7.58334 21.231 8.15403 22.2468 9.16985C23.2627 10.1857 23.8333 11.5634 23.8333 13C23.8333 14.4366 23.2627 15.8144 22.2468 16.8302C21.231 17.846 19.8533 18.4167 18.4167 18.4167H16.25" stroke="white" stroke-width="2" stroke-linecap="round" stroke-linejoin="round"/>
<path d="M8.66602 13H17.3327" stroke="white" stroke-width="2" stroke-linecap="round" stroke-linejoin="round"/>
</svg>
