<svg width="24" height="24" viewBox="0 0 24 24" fill="none" xmlns="http://www.w3.org/2000/svg">
<g clip-path="url(#clip0_2252_2590)">
<path d="M20.3199 10.9922C20.3199 11.9889 20.3199 12.9856 20.3199 13.9824C20.3199 15.2045 20.3199 16.4266 20.3199 17.6488C20.3199 17.8511 20.3135 18.0522 20.2872 18.2533C20.3009 18.1515 20.3145 18.0497 20.3282 17.948C20.2844 18.2609 20.2013 18.5651 20.0796 18.8567C20.1182 18.7653 20.1568 18.6738 20.1954 18.5824C20.074 18.8662 19.9184 19.1323 19.7308 19.3775C19.7907 19.3 19.8505 19.2225 19.9104 19.1451C19.7219 19.387 19.5056 19.6036 19.2638 19.7924C19.3413 19.7325 19.4188 19.6727 19.4963 19.6128C19.2514 19.8007 18.9856 19.9565 18.7019 20.0782C18.7933 20.0396 18.8848 20.001 18.9762 19.9624C18.6848 20.0843 18.3808 20.1675 18.0679 20.2114C18.1697 20.1978 18.2715 20.1841 18.3732 20.1704C18.0702 20.2102 17.7661 20.2031 17.4614 20.2031C16.9972 20.2031 16.5331 20.2031 16.069 20.2031C14.6235 20.2031 13.1779 20.2031 11.7324 20.2031C10.3704 20.2031 9.00839 20.2031 7.64639 20.2031C7.32755 20.2031 7.0087 20.2031 6.68988 20.2031C6.4369 20.2031 6.18647 20.2035 5.93444 20.1704C6.03621 20.1841 6.13798 20.1978 6.23974 20.2114C5.92676 20.1675 5.62256 20.0842 5.33095 19.9624C5.42238 20.001 5.51383 20.0396 5.60529 20.0782C5.3213 19.9566 5.05521 19.8007 4.80998 19.6128C4.88747 19.6727 4.96493 19.7325 5.04241 19.7924C4.80037 19.6037 4.58369 19.387 4.39493 19.1451C4.45479 19.2225 4.51465 19.3 4.57451 19.3775C4.38656 19.1323 4.2307 18.8663 4.10906 18.5824C4.14764 18.6738 4.18624 18.7653 4.22482 18.8567C4.1029 18.5651 4.0196 18.2609 3.97568 17.948C3.98934 18.0498 4.00303 18.1515 4.01669 18.2533C3.97692 17.9502 3.98395 17.6461 3.98395 17.3413C3.98395 16.8772 3.98395 16.4131 3.98395 15.949C3.98395 14.5035 3.98395 13.0579 3.98395 11.6124C3.98395 10.2504 3.98395 8.88834 3.98395 7.52634C3.98395 7.2075 3.98395 6.88866 3.98395 6.56984C3.98395 6.31687 3.98362 6.06645 4.01669 5.81447C4.00303 5.91623 3.98934 6.018 3.97568 6.11977C4.0196 5.80692 4.1029 5.50287 4.22482 5.21142C4.18624 5.30285 4.14764 5.3943 4.10906 5.48576C4.2307 5.20198 4.38658 4.93612 4.57451 4.6912C4.51465 4.76869 4.45479 4.84615 4.39493 4.92363C4.58372 4.68185 4.80042 4.46545 5.04241 4.27695C4.96493 4.3368 4.88747 4.39666 4.80998 4.45652C5.05523 4.26884 5.32132 4.11323 5.60529 3.99178C5.51383 4.03036 5.42238 4.06896 5.33095 4.10756C5.62258 3.98585 5.9268 3.9027 6.23974 3.85887C6.13798 3.87253 6.03621 3.88622 5.93444 3.89988C6.31828 3.84961 6.71208 3.86719 7.09847 3.86719C7.75364 3.86719 8.40883 3.86719 9.06401 3.86719C10.3611 3.86719 11.6582 3.86719 12.9553 3.86719C13.0351 3.86719 13.115 3.86719 13.1949 3.86719C13.8209 3.86719 14.3433 3.34479 14.3433 2.71875C14.3433 2.09271 13.8209 1.57031 13.1949 1.57031C12.1983 1.57031 11.2016 1.57031 10.205 1.57031C8.98296 1.57031 7.76095 1.57031 6.53892 1.57031C5.6193 1.57031 4.71173 1.78856 3.92698 2.27988C2.83741 2.96208 2.00615 4.10759 1.78031 5.38268C1.70283 5.82012 1.68705 6.24138 1.68705 6.67957C1.68705 7.13009 1.68705 7.5806 1.68705 8.03114C1.68705 9.46688 1.68705 10.9026 1.68705 12.3383C1.68705 13.7137 1.68705 15.0891 1.68705 16.4646C1.68705 17.4699 1.61334 18.5188 2.00997 19.4673C2.14512 19.7904 2.28347 20.0994 2.48245 20.3884C2.67586 20.6694 2.89287 20.941 3.13964 21.1775C3.64718 21.6639 4.23783 22.0042 4.8941 22.2454C5.45051 22.4499 6.04919 22.5 6.63804 22.5C7.66458 22.5 8.69112 22.5 9.71763 22.5C11.2406 22.5 12.7635 22.5 14.2865 22.5C15.378 22.5 16.4695 22.5 17.5609 22.5C18.0431 22.5 18.5164 22.4756 18.9919 22.3694C20.2491 22.0884 21.3694 21.2159 22.0019 20.1021C22.4377 19.3346 22.6167 18.4807 22.6167 17.605C22.6167 17.1056 22.6167 16.6063 22.6167 16.1069C22.6167 14.6739 22.6167 13.241 22.6167 11.808C22.6167 11.536 22.6167 11.2641 22.6167 10.9922C22.6167 10.3661 22.0943 9.84375 21.4683 9.84375C20.8423 9.84375 20.3199 10.3661 20.3199 10.9922Z" fill="white"/>
<path d="M21.2444 5.5145L12.8935 13.8654L10.2021 14.0299L10.3224 11.2942L18.6733 2.94333C18.969 2.64755 19.4423 2.64141 19.7304 2.92955L21.2582 4.45732C21.5462 4.74561 21.5402 5.21872 21.2444 5.5145Z" fill="white"/>
</g>
<defs>
<clipPath id="clip0_2252_2590">
<rect width="24" height="24" fill="white"/>
</clipPath>
</defs>
</svg>
