<svg width="24" height="24" viewBox="0 0 24 24" fill="none" xmlns="http://www.w3.org/2000/svg">
<g clip-path="url(#clip0_2562_931)">
<path d="M15.2737 19.9875C15.1743 19.9875 15.0789 20.027 15.0086 20.0973C14.9383 20.1676 14.8987 20.263 14.8987 20.3625C14.8987 21.1323 14.593 21.8705 14.0486 22.4149C13.5043 22.9592 12.766 23.265 11.9962 23.265C11.2265 23.265 10.4882 22.9592 9.94387 22.4149C9.39955 21.8705 9.09375 21.1323 9.09375 20.3625C9.09375 20.263 9.05424 20.1676 8.98392 20.0973C8.91359 20.027 8.81821 19.9875 8.71875 19.9875C8.61929 19.9875 8.52391 20.027 8.45358 20.0973C8.38326 20.1676 8.34375 20.263 8.34375 20.3625C8.34375 21.3282 8.72738 22.2544 9.41025 22.9372C10.0931 23.6201 11.0193 24.0037 11.985 24.0037C12.9507 24.0037 13.8769 23.6201 14.5598 22.9372C15.2426 22.2544 15.6262 21.3282 15.6262 20.3625C15.6264 20.2668 15.59 20.1747 15.5245 20.105C15.459 20.0353 15.3693 19.9932 15.2737 19.9875Z" fill="white"/>
<path d="M11.9998 8.54248C8.86598 8.54248 5.86047 9.7874 3.64449 12.0034C1.42852 14.2194 0.183594 17.2249 0.183594 20.3587H2.11859C2.11859 17.7381 3.15965 15.2247 5.01275 13.3716C6.86584 11.5185 9.37917 10.4775 11.9998 10.4775C14.6205 10.4775 17.1339 11.5185 18.9869 13.3716C20.84 15.2247 21.8811 17.7381 21.8811 20.3587H23.8161C23.8161 18.807 23.5105 17.2705 22.9166 15.8368C22.3228 14.4032 21.4524 13.1006 20.3552 12.0034C19.258 10.9061 17.9553 10.0358 16.5217 9.44194C15.0881 8.84812 13.5516 8.54248 11.9998 8.54248Z" fill="white"/>
<path d="M16.0834 13.2862C14.8411 12.5712 13.4327 12.1952 11.9993 12.1959C10.5659 12.1966 9.15785 12.5741 7.91626 13.2904C6.67467 14.0067 5.64314 15.0367 4.92503 16.2773C4.20693 17.5178 3.82747 18.9253 3.82469 20.3587C3.82469 20.4582 3.8642 20.5536 3.93452 20.6239C4.00485 20.6942 4.10023 20.7337 4.19969 20.7337H6.02969C6.12914 20.7337 6.22453 20.6942 6.29485 20.6239C6.36518 20.5536 6.40469 20.4582 6.40469 20.3587C6.40334 19.3752 6.66127 18.4087 7.15248 17.5567C7.64369 16.7046 8.35082 15.9971 9.20261 15.5054C10.0544 15.0137 11.0208 14.7553 12.0043 14.7561C12.9878 14.7569 13.9537 15.0169 14.8047 15.51C15.0792 15.6705 15.339 15.8549 15.5809 16.0612L12.9859 18.7912C12.6913 18.6037 12.349 18.5048 11.9997 18.5062C11.6333 18.5062 11.2751 18.6149 10.9705 18.8185C10.6659 19.022 10.4284 19.3113 10.2882 19.6498C10.148 19.9883 10.1113 20.3608 10.1828 20.7202C10.2543 21.0795 10.4307 21.4096 10.6898 21.6687C10.9488 21.9277 11.2789 22.1042 11.6383 22.1757C11.9976 22.2471 12.3701 22.2104 12.7086 22.0702C13.0471 21.93 13.3364 21.6926 13.54 21.3879C13.7435 21.0833 13.8522 20.7251 13.8522 20.3587C13.8532 19.9785 13.7352 19.6074 13.5147 19.2975L16.1247 16.5712C16.4096 16.872 16.661 17.2026 16.8747 17.5575C17.3665 18.4091 17.6252 19.3753 17.6247 20.3587C17.6247 20.4582 17.6642 20.5536 17.7345 20.6239C17.8048 20.6942 17.9002 20.7337 17.9997 20.7337H19.8297C19.9291 20.7337 20.0245 20.6942 20.0949 20.6239C20.1652 20.5536 20.2047 20.4582 20.2047 20.3587C20.1977 18.9221 19.8133 17.5126 19.09 16.2713C18.3667 15.03 17.3299 14.0006 16.0834 13.2862ZM6.70469 16.875L6.15719 16.56L5.75969 16.3275C6.33206 15.4438 7.08476 14.6911 7.96844 14.1187L8.51594 15.0637C7.79586 15.5387 7.17968 16.1549 6.70469 16.875ZM14.8422 14.6925C14.0732 14.3063 13.2337 14.0805 12.3747 14.0287V12.9337C13.4209 12.9904 14.4433 13.2677 15.3747 13.7475L14.8422 14.6925ZM11.9997 21.4725C11.8281 21.4795 11.6573 21.4472 11.5001 21.378C11.343 21.3089 11.2038 21.2046 11.0932 21.0733C10.9825 20.942 10.9034 20.7871 10.8619 20.6205C10.8204 20.4539 10.8175 20.2801 10.8536 20.1122C10.8896 19.9443 10.9636 19.787 11.0699 19.6521C11.1762 19.5173 11.3119 19.4085 11.4667 19.3342C11.6215 19.2599 11.7912 19.2221 11.9629 19.2235C12.1346 19.2249 12.3037 19.2656 12.4572 19.3425L11.7334 20.0925C11.6658 20.1624 11.6281 20.2559 11.6281 20.3531C11.6281 20.4504 11.6658 20.5438 11.7334 20.6137C11.8026 20.6785 11.8937 20.7147 11.9884 20.715C12.0381 20.7148 12.0871 20.7047 12.1328 20.6854C12.1785 20.6661 12.22 20.6379 12.2547 20.6025L12.9784 19.8525C13.0675 20.0069 13.1177 20.1806 13.1247 20.3587C13.1217 20.6552 13.0019 20.9384 12.7912 21.147C12.5806 21.3555 12.2961 21.4725 11.9997 21.4725ZM18.3297 19.9725C18.2794 19.1116 18.0522 18.2704 17.6622 17.5012L18.6109 16.9537C19.0912 17.885 19.3686 18.9075 19.4247 19.9537L18.3297 19.9725ZM19.8447 10.5675C20.7934 11.3285 21.6271 12.2228 22.3197 13.2225V0H19.8447V10.5675ZM15.3034 1.4775C15.204 1.4775 15.1086 1.51701 15.0383 1.58733C14.9679 1.65766 14.9284 1.75304 14.9284 1.8525V7.875C14.9292 7.9555 14.9559 8.0336 15.0046 8.09775C15.0532 8.16191 15.1212 8.20871 15.1984 8.23125C16.0382 8.45987 16.8515 8.77663 17.6247 9.17625C17.6762 9.20482 17.7345 9.21907 17.7934 9.2175C17.861 9.21932 17.9275 9.20105 17.9847 9.165C18.0389 9.13201 18.0838 9.08581 18.1153 9.03072C18.1468 8.97562 18.1638 8.91345 18.1647 8.85V1.845C18.1647 1.74554 18.1252 1.65016 18.0549 1.57983C17.9845 1.50951 17.8891 1.47 17.7897 1.47L15.3034 1.4775ZM17.4109 8.25C16.8491 7.98885 16.2688 7.7695 15.6747 7.59375V2.21625H17.4109V8.25ZM10.7622 7.875C11.585 7.78999 12.4144 7.78999 13.2372 7.875V0.75H10.7622V7.875ZM6.22094 4.4325C6.12148 4.4325 6.0261 4.47201 5.95577 4.54233C5.88545 4.61266 5.84594 4.70804 5.84594 4.8075V8.85C5.84684 8.91345 5.86383 8.97562 5.89531 9.03072C5.92679 9.08581 5.97174 9.13201 6.02594 9.165C6.08294 9.19791 6.14761 9.21524 6.21344 9.21524C6.27926 9.21524 6.34393 9.19791 6.40094 9.165C7.16456 8.77789 7.96638 8.47124 8.79344 8.25C8.87072 8.22746 8.9387 8.18066 8.98732 8.1165C9.03594 8.05235 9.06263 7.97425 9.06344 7.89375V4.8C9.06344 4.70054 9.02393 4.60516 8.9536 4.53483C8.88328 4.46451 8.78789 4.425 8.68844 4.425L6.22094 4.4325ZM8.32469 7.60125C7.73079 7.77457 7.15047 7.9914 6.58844 8.25V5.1675H8.32469V7.60125ZM1.67969 13.2225C2.37231 12.2228 3.20594 11.3285 4.15469 10.5675V8.1225H1.67969V13.2225Z" fill="white"/>
</g>
<defs>
<clipPath id="clip0_2562_931">
<rect width="24" height="24" fill="white"/>
</clipPath>
</defs>
</svg>
