<svg width="24" height="23" viewBox="0 0 24 23" fill="none" xmlns="http://www.w3.org/2000/svg">
<path d="M10 4H3C2.44771 4 2 4.4477 2 5V18C2 18.5523 2.44771 19 3 19H21C21.5523 19 22 18.5523 22 18V16.75" stroke="white" stroke-width="2" stroke-linecap="round" stroke-linejoin="round"/>
<path d="M5 11.0208H9" stroke="white" stroke-width="2" stroke-linecap="round"/>
<path d="M5 14.8542H17" stroke="white" stroke-width="2" stroke-linecap="round"/>
<path d="M17 7.90894C18.6569 7.90894 20 6.62175 20 5.03394C20 3.44612 18.6569 2.15894 17 2.15894C15.3431 2.15894 14 3.44612 14 5.03394C14 6.62175 15.3431 7.90894 17 7.90894Z" stroke="white" stroke-width="2" stroke-linecap="round" stroke-linejoin="round"/>
<path d="M22.0005 14.2093C21.0239 12.3011 19.0004 11 17.0004 11C15.0004 11 14.004 11.5664 12.9756 12.5" stroke="white" stroke-width="2" stroke-linecap="round" stroke-linejoin="round"/>
</svg>
