<svg width="20" height="20" viewBox="0 0 20 20" fill="none" xmlns="http://www.w3.org/2000/svg">
<path d="M18.3813 2.8625C18.1469 2.63005 17.8301 2.49974 17.5 2.5C14.1187 2.5 10.625 2.5 10.625 5V16.25C10.625 16.4158 10.6908 16.5747 10.8081 16.6919C10.9253 16.8092 11.0842 16.875 11.25 16.875C11.4158 16.875 11.5747 16.8092 11.6919 16.6919C11.8092 16.5747 11.875 16.4158 11.875 16.25C11.875 15.1 14.3125 15 17.5 15C17.8315 15 18.1495 14.8683 18.3839 14.6339C18.6183 14.3995 18.75 14.0815 18.75 13.75V3.75C18.7501 3.58506 18.7176 3.42172 18.6543 3.2694C18.591 3.11708 18.4982 2.97879 18.3813 2.8625ZM13.125 5.625H16.25C16.4158 5.625 16.5747 5.69085 16.6919 5.80806C16.8092 5.92527 16.875 6.08424 16.875 6.25C16.875 6.41576 16.8092 6.57473 16.6919 6.69194C16.5747 6.80915 16.4158 6.875 16.25 6.875H13.125C12.9592 6.875 12.8003 6.80915 12.6831 6.69194C12.5658 6.57473 12.5 6.41576 12.5 6.25C12.5 6.08424 12.5658 5.92527 12.6831 5.80806C12.8003 5.69085 12.9592 5.625 13.125 5.625ZM13.125 8.125H16.25C16.4158 8.125 16.5747 8.19085 16.6919 8.30806C16.8092 8.42527 16.875 8.58424 16.875 8.75C16.875 8.91576 16.8092 9.07473 16.6919 9.19194C16.5747 9.30915 16.4158 9.375 16.25 9.375H13.125C12.9592 9.375 12.8003 9.30915 12.6831 9.19194C12.5658 9.07473 12.5 8.91576 12.5 8.75C12.5 8.58424 12.5658 8.42527 12.6831 8.30806C12.8003 8.19085 12.9592 8.125 13.125 8.125ZM13.75 11.875H13.125C12.9592 11.875 12.8003 11.8092 12.6831 11.6919C12.5658 11.5747 12.5 11.4158 12.5 11.25C12.5 11.0842 12.5658 10.9253 12.6831 10.8081C12.8003 10.6908 12.9592 10.625 13.125 10.625H13.75C13.9158 10.625 14.0747 10.6908 14.1919 10.8081C14.3092 10.9253 14.375 11.0842 14.375 11.25C14.375 11.4158 14.3092 11.5747 14.1919 11.6919C14.0747 11.8092 13.9158 11.875 13.75 11.875ZM16.25 11.875C16.0842 11.875 15.9253 11.8092 15.8081 11.6919C15.6908 11.5747 15.625 11.4158 15.625 11.25C15.625 11.0842 15.6908 10.9253 15.8081 10.8081C15.9253 10.6908 16.0842 10.625 16.25 10.625C16.4158 10.625 16.5747 10.6908 16.6919 10.8081C16.8092 10.9253 16.875 11.0842 16.875 11.25C16.875 11.4158 16.8092 11.5747 16.6919 11.6919C16.5747 11.8092 16.4158 11.875 16.25 11.875ZM2.5 2.5C2.17083 2.50431 1.85568 2.63395 1.61875 2.8625C1.50177 2.97879 1.40896 3.11708 1.34567 3.2694C1.28239 3.42172 1.24987 3.58506 1.25 3.75V13.75C1.25 14.0815 1.3817 14.3995 1.61612 14.6339C1.85054 14.8683 2.16848 15 2.5 15C5.6875 15 8.125 15.1 8.125 16.25C8.125 16.4158 8.19085 16.5747 8.30806 16.6919C8.42527 16.8092 8.58424 16.875 8.75 16.875C8.91576 16.875 9.07473 16.8092 9.19194 16.6919C9.30915 16.5747 9.375 16.4158 9.375 16.25V5C9.375 2.5 5.88125 2.5 2.5 2.5ZM3.75 5.625H5.625C5.79076 5.625 5.94973 5.69085 6.06694 5.80806C6.18415 5.92527 6.25 6.08424 6.25 6.25C6.25 6.41576 6.18415 6.57473 6.06694 6.69194C5.94973 6.80915 5.79076 6.875 5.625 6.875H3.75C3.58424 6.875 3.42527 6.80915 3.30806 6.69194C3.19085 6.57473 3.125 6.41576 3.125 6.25C3.125 6.08424 3.19085 5.92527 3.30806 5.80806C3.42527 5.69085 3.58424 5.625 3.75 5.625ZM6.875 11.875H3.75C3.58424 11.875 3.42527 11.8092 3.30806 11.6919C3.19085 11.5747 3.125 11.4158 3.125 11.25C3.125 11.0842 3.19085 10.9253 3.30806 10.8081C3.42527 10.6908 3.58424 10.625 3.75 10.625H6.875C7.04076 10.625 7.19973 10.6908 7.31694 10.8081C7.43415 10.9253 7.5 11.0842 7.5 11.25C7.5 11.4158 7.43415 11.5747 7.31694 11.6919C7.19973 11.8092 7.04076 11.875 6.875 11.875ZM6.875 9.375H3.75C3.58424 9.375 3.42527 9.30915 3.30806 9.19194C3.19085 9.07473 3.125 8.91576 3.125 8.75C3.125 8.58424 3.19085 8.42527 3.30806 8.30806C3.42527 8.19085 3.58424 8.125 3.75 8.125H6.875C7.04076 8.125 7.19973 8.19085 7.31694 8.30806C7.43415 8.42527 7.5 8.58424 7.5 8.75C7.5 8.91576 7.43415 9.07473 7.31694 9.19194C7.19973 9.30915 7.04076 9.375 6.875 9.375ZM2.5 16.25C2.5 16.5815 2.6317 16.8995 2.86612 17.1339C3.10054 17.3683 3.41848 17.5 3.75 17.5H7.3625C7.11249 17.2439 6.94301 16.9201 6.875 16.5688C6.1125 16.25 3.525 16.25 2.5 16.25ZM12.6375 17.5H16.25C16.5815 17.5 16.8995 17.3683 17.1339 17.1339C17.3683 16.8995 17.5 16.5815 17.5 16.25C16.475 16.25 13.8875 16.25 13.125 16.5688C13.057 16.9201 12.8875 17.2439 12.6375 17.5Z" fill="white"/>
</svg>
