<svg width="20" height="20" viewBox="0 0 20 20" fill="none" xmlns="http://www.w3.org/2000/svg">
<path d="M16.957 7.75134C16.6568 7.41094 16.1362 7.39094 15.7758 7.71134C15.4354 8.01174 15.4154 8.53214 15.7358 8.89254C17.0972 10.3741 17.8578 12.3161 17.8578 14.3781C17.8578 14.8387 18.2384 15.1991 18.6788 15.1991C19.1394 15.1991 19.4996 14.8187 19.4996 14.3781C19.5196 11.8957 18.6188 9.53314 16.957 7.75134ZM10.6706 6.36994C11.131 6.40994 11.5114 6.08974 11.5514 5.62914C11.5914 5.16874 11.2712 4.78834 10.8106 4.74834C10.5504 4.72834 10.2702 4.70834 10.0098 4.70834C4.7644 4.70834 0.5 9.05274 0.5 14.3783C0.5 14.8387 0.8804 15.1991 1.3208 15.1991C1.7612 15.1991 2.1418 14.8187 2.1418 14.3781C2.1418 9.95374 5.6654 6.34994 9.9898 6.34994C10.23 6.32994 10.4704 6.34994 10.6706 6.36994ZM14.725 4.81334C14.9491 4.93103 15.1194 5.13036 15.2007 5.37009C15.2819 5.60983 15.268 5.87163 15.1616 6.10134L11.552 13.8979C11.192 14.7779 10.57 15.2999 9.89 15.2999C9.33 15.2999 8.848 15.0199 8.588 14.5579C8.308 14.0179 8.328 13.3579 8.668 12.7959L13.4292 5.16494C13.561 4.95365 13.7678 4.80001 14.0081 4.73483C14.2484 4.66966 14.5045 4.69777 14.725 4.81354V4.81334Z" fill="white"/>
</svg>
