<svg width="20" height="20" viewBox="0 0 20 20" fill="none" xmlns="http://www.w3.org/2000/svg">
<path d="M12.4865 6.02112C11.7616 6.02112 11.1719 5.43176 11.1719 4.70734V0.390625H4.44862C3.30953 0.390625 2.38281 1.31677 2.38281 2.45514V17.5449C2.38281 18.6832 3.30953 19.6094 4.44862 19.6094H14.9654C16.1045 19.6094 17.0313 18.6832 17.0313 17.5449V6.02112H12.4865ZM5.46274 13.9038H8.19411C8.50526 13.9038 8.75751 14.1559 8.75751 14.4669C8.75751 14.7778 8.50526 15.0299 8.19411 15.0299H5.46274C5.15159 15.0299 4.89934 14.7778 4.89934 14.4669C4.89934 14.1559 5.15159 13.9038 5.46274 13.9038ZM4.89934 11.4639C4.89934 11.153 5.15159 10.9009 5.46274 10.9009H13.726C14.0371 10.9009 14.2894 11.153 14.2894 11.4639C14.2894 11.7749 14.0371 12.027 13.726 12.027H5.46274C5.15159 12.027 4.89934 11.7749 4.89934 11.4639ZM13.726 7.89795C14.0371 7.89795 14.2894 8.15004 14.2894 8.461C14.2894 8.77195 14.0371 9.02405 13.726 9.02405H5.46274C5.15159 9.02405 4.89934 8.77195 4.89934 8.461C4.89934 8.15004 5.15159 7.89795 5.46274 7.89795H13.726Z" fill="white"/>
<path d="M12.3047 4.6957C12.3047 4.79888 12.3884 4.88281 12.4913 4.88281H16.7578C16.6549 4.69179 16.5225 4.51835 16.3654 4.36894L12.7666 0.955247C12.6286 0.824314 12.4731 0.713176 12.3047 0.625V4.6957H12.3047Z" fill="white"/>
</svg>
