<svg width="31" height="32" viewBox="0 0 31 32" fill="none" xmlns="http://www.w3.org/2000/svg">
<g clip-path="url(#clip0_3519_1023)">
<path d="M12.1098 23.6111H9.41884C7.63461 23.6111 5.92346 22.8794 4.66182 21.5771C3.40019 20.2747 2.69141 18.5084 2.69141 16.6666C2.69141 14.8248 3.40019 13.0585 4.66182 11.7561C5.92346 10.4538 7.63461 9.72217 9.41884 9.72217H12.1098" stroke="white" stroke-width="2" stroke-linecap="round" stroke-linejoin="round"/>
<path d="M20.1816 9.72217H22.8726C24.6568 9.72217 26.368 10.4538 27.6296 11.7561C28.8913 13.0585 29.6 14.8248 29.6 16.6666C29.6 18.5084 28.8913 20.2747 27.6296 21.5771C26.368 22.8794 24.6568 23.6111 22.8726 23.6111H20.1816" stroke="white" stroke-width="2" stroke-linecap="round" stroke-linejoin="round"/>
<path d="M10.7637 16.6666H21.5276" stroke="white" stroke-width="2" stroke-linecap="round" stroke-linejoin="round"/>
</g>
<defs>
<clipPath id="clip0_3519_1023">
<rect width="31" height="32" fill="white"/>
</clipPath>
</defs>
</svg>
